<?xml version="1.0" standalone="no"?>
<!DOCTYPE svg PUBLIC "-//W3C//DTD SVG 20010904//EN"
 "http://www.w3.org/TR/2001/REC-SVG-20010904/DTD/svg10.dtd">
<svg version="1.0" xmlns="http://www.w3.org/2000/svg"
 width="558.000000pt" height="558.000000pt" viewBox="0 0 558.000000 558.000000"
 preserveAspectRatio="xMidYMid meet">
<metadata>
Created by potrace 1.11, written by Peter Selinger 2001-2013
</metadata>
<g transform="translate(0.000000,558.000000) scale(0.100000,-0.100000)"
fill="#000000" stroke="none">
<path d="M0 2790 l0 -2790 2790 0 2790 0 0 2790 0 2790 -2790 0 -2790 0 0
-2790z m2187 2347 c118 -33 241 -107 327 -195 l49 -50 -34 -30 c-19 -16 -90
-77 -158 -135 l-124 -106 -56 55 c-78 76 -126 97 -231 102 -74 3 -91 0 -130
-20 -96 -49 -136 -180 -85 -278 25 -48 111 -118 280 -230 245 -162 326 -230
394 -330 80 -118 107 -224 98 -388 -9 -176 -55 -281 -173 -399 -268 -267 -823
-270 -1164 -7 -93 71 -210 206 -210 240 0 13 320 234 338 234 4 0 16 -15 27
-32 33 -56 147 -162 210 -194 90 -47 142 -57 248 -52 97 6 126 15 194 60 77
51 105 163 64 253 -26 57 -82 105 -291 245 -300 201 -414 333 -455 528 -77
370 127 675 497 742 74 13 322 4 385 -13z m1584 -7 c417 -40 680 -265 739
-633 17 -103 7 -298 -19 -397 -84 -314 -322 -528 -680 -612 -68 -16 -135 -21
-314 -25 -222 -5 -227 -6 -232 -27 -3 -11 -21 -113 -40 -226 -19 -113 -37
-215 -40 -227 -5 -23 -5 -23 -225 -23 l-220 0 5 23 c3 12 89 497 190 1077 102
580 188 1061 190 1068 5 15 486 17 646 2z m-605 -2927 c462 -554 517 -625 594
-756 25 -43 46 -72 47 -65 1 7 10 90 18 183 10 107 49 353 103 660 l88 490
205 0 204 0 -3 -25 c-5 -35 -360 -2053 -373 -2117 -9 -45 -14 -53 -32 -53 -17
1 -135 136 -471 540 -482 578 -488 587 -574 730 l-57 95 -12 -140 c-13 -146
-32 -265 -137 -850 l-62 -350 -207 -3 -207 -2 5 22 c3 13 88 498 190 1078 102
580 188 1065 190 1078 3 13 13 22 24 22 13 0 165 -174 467 -537z m-1100 500
c-2 -10 -89 -501 -193 -1090 l-188 -1073 -217 0 c-191 0 -218 2 -218 16 0 14
364 2095 375 2142 5 22 5 22 226 22 205 0 220 -1 215 -17z"/>
<path d="M3495 4738 c-5 -18 -155 -873 -155 -887 0 -18 255 -14 348 5 203 42
326 161 366 356 20 95 20 163 2 249 -19 88 -45 136 -99 186 -56 52 -90 69
-169 88 -80 19 -287 21 -293 3z"/>
</g>
</svg>
